<?xml version="1.0" encoding="utf-8"?>
<!-- Generator: Adobe Illustrator 26.0.2, SVG Export Plug-In . SVG Version: 6.00 Build 0)  -->
<svg version="1.1" id="Layer_1" xmlns="http://www.w3.org/2000/svg" xmlns:xlink="http://www.w3.org/1999/xlink" x="0px" y="0px"
	 viewBox="0 0 287.79 193.92" style="enable-background:new 0 0 287.79 193.92;" xml:space="preserve">
<style type="text/css">
	.st0{fill-rule:evenodd;clip-rule:evenodd;fill:url(#SVGID_1_);}
	.st1{fill-rule:evenodd;clip-rule:evenodd;fill:url(#SVGID_00000134966278005343950990000006103680953631770277_);}
	.st2{fill-rule:evenodd;clip-rule:evenodd;fill:#414042;}
</style>
<g>
	<g>
		<linearGradient id="SVGID_1_" gradientUnits="userSpaceOnUse" x1="173.8663" y1="46.8677" x2="193.3102" y2="71.4585">
			<stop  offset="0" style="stop-color:#006684"/>
			<stop  offset="1" style="stop-color:#007C91"/>
		</linearGradient>
		<path class="st0" d="M212.21,63.08c-0.04-0.13-0.08-0.26-0.15-0.38l-1.39-2.64v0l-13.78-26.14c-0.19-0.37-0.6-0.58-1.01-0.51
			c-16.58,2.52-29.3,16.9-29.3,34.26c0,17.46,12.84,31.9,29.55,34.31c1.31,0.19,2.28-1.19,1.66-2.36l-3.12-5.86
			c-1.66-4.49,1.96-6.58,3.74-7.32c0.48-0.2,0.68-0.76,0.44-1.22l-9.25-17.69c-1.18-2.27-0.93-5.07,0.78-6.97
			c2.06-2.3,5.18-2.84,7.81-1.43c1.08,0.58,1.93,1.5,2.52,2.58c0.56,1.04,1.43,2.65,2.17,4.02l0,0l0,0c0.34,0.63,0.65,1.21,0.9,1.66
			c0.04,0.08,0.1,0.16,0.16,0.22c1.36,2.05,4.09,2.74,6.27,1.51C212.35,67.93,213.2,65.3,212.21,63.08z"/>
		
			<linearGradient id="SVGID_00000139255671412650990800000017016587895849279378_" gradientUnits="userSpaceOnUse" x1="190.7522" y1="65.3584" x2="235.586" y2="65.3584">
			<stop  offset="0" style="stop-color:#F58220"/>
			<stop  offset="1" style="stop-color:#F9A01B"/>
		</linearGradient>
		<path style="fill-rule:evenodd;clip-rule:evenodd;fill:url(#SVGID_00000139255671412650990800000017016587895849279378_);" d="
			M201.09,33c-0.53,0-1.05,0.02-1.57,0.04c-0.45,0.02-0.73,0.51-0.52,0.91l14.23,26.99l0.33,0.65c1.86,3.15,0.74,7.21-2.39,9.11
			c-1.82,1.1-3.94,1.23-5.78,0.55c-1.34-0.5-2.42-1.51-3.11-2.77c-1.08-1.98-3.15-5.81-3.15-5.81c-0.45-0.84-1.12-1.57-1.97-1.99
			c-1.35-0.66-2.87-0.61-4.14,0.11c-2.09,1.19-2.86,3.79-1.74,5.92l9.29,17.78c0.33,0.64,1.07,0.93,1.76,0.73
			c3.59-1.07,7.76,0.45,9.34,3.4l4.27,8.01c0.55,1.04,1.86,1.39,2.86,0.79c10.06-6.06,16.8-17.11,16.8-29.75
			C235.59,48.52,220.14,33,201.09,33z"/>
	</g>
	<g>
		<rect x="41.4" y="152.77" class="st2" width="0.95" height="7.65"/>
		<polygon class="st2" points="50.7,160.42 46.24,154.32 46.24,160.42 45.29,160.42 45.29,152.77 46.26,152.77 50.67,158.75 
			50.67,152.77 51.62,152.77 51.62,160.42 		"/>
		<path class="st2" d="M54.1,159.34l0.57-0.73c0.49,0.57,1.32,1.1,2.4,1.1c1.37,0,1.8-0.73,1.8-1.33c0-1.97-4.53-0.87-4.53-3.6
			c0-1.26,1.12-2.13,2.64-2.13c1.16,0,2.07,0.4,2.71,1.08l-0.57,0.7c-0.57-0.64-1.38-0.92-2.21-0.92c-0.91,0-1.57,0.49-1.57,1.22
			c0,1.72,4.53,0.73,4.53,3.59c0,1.1-0.76,2.25-2.82,2.25C55.72,160.56,54.73,160.05,54.1,159.34z"/>
		<polygon class="st2" points="64.25,160.42 64.25,153.62 61.83,153.62 61.83,152.77 67.64,152.77 67.64,153.62 65.2,153.62 
			65.2,160.42 		"/>
		<rect x="70.04" y="152.77" class="st2" width="0.95" height="7.65"/>
		<polygon class="st2" points="75.83,160.42 75.83,153.62 73.41,153.62 73.41,152.77 79.21,152.77 79.21,153.62 76.78,153.62 
			76.78,160.42 		"/>
		<path class="st2" d="M81.62,157.45v-4.68h0.96v4.66c0,1.4,0.75,2.28,2.16,2.28c1.41,0,2.17-0.88,2.17-2.28v-4.66h0.96v4.67
			c0,1.9-1.06,3.12-3.13,3.12C82.67,160.56,81.62,159.33,81.62,157.45z"/>
		<polygon class="st2" points="92.7,160.42 92.7,153.62 90.28,153.62 90.28,152.77 96.08,152.77 96.08,153.62 93.65,153.62 
			93.65,160.42 		"/>
		<path class="st2" d="M102.61,160.42v-7.65h2.62c2.39,0,3.92,1.66,3.92,3.83c0,2.18-1.54,3.82-3.92,3.82H102.61L102.61,160.42z
			 M108.16,156.6L108.16,156.6c0-1.65-1.04-2.98-2.94-2.98h-1.66v5.95h1.66C107.09,159.57,108.16,158.24,108.16,156.6z"/>
		<polygon class="st2" points="111.79,160.42 111.79,152.77 116.8,152.77 116.8,153.62 112.74,153.62 112.74,156.08 116.72,156.08 
			116.72,156.93 112.74,156.93 112.74,159.57 116.8,159.57 116.8,160.42 		"/>
		<path class="st2" d="M119.01,159.34l0.57-0.73c0.49,0.57,1.32,1.1,2.4,1.1c1.36,0,1.8-0.73,1.8-1.33c0-1.97-4.53-0.87-4.53-3.6
			c0-1.26,1.12-2.13,2.64-2.13c1.16,0,2.07,0.4,2.71,1.08l-0.57,0.7c-0.57-0.64-1.38-0.92-2.21-0.92c-0.91,0-1.57,0.49-1.57,1.22
			c0,1.72,4.53,0.73,4.53,3.59c0,1.1-0.76,2.25-2.82,2.25C120.62,160.56,119.64,160.05,119.01,159.34z"/>
		<path class="st2" d="M132.68,160.42l-0.68-1.71h-3.81l-0.68,1.71h-1.09l3.09-7.65h1.18l3.07,7.65H132.68L132.68,160.42z
			 M130.1,153.74L130.1,153.74l-1.62,4.13h3.25L130.1,153.74z"/>
		<rect x="135.91" y="152.77" class="st2" width="0.95" height="7.65"/>
		<polygon class="st2" points="145.22,160.42 140.75,154.32 140.75,160.42 139.8,160.42 139.8,152.77 140.78,152.77 145.18,158.75 
			145.18,152.77 146.14,152.77 146.14,160.42 		"/>
		<path class="st2" d="M158.13,160.42c-0.23-0.19-0.53-0.49-0.84-0.8c-0.56,0.56-1.27,0.94-2.2,0.94c-1.31,0-2.37-0.72-2.37-2.13
			c0-1.19,0.8-1.8,1.69-2.28c-0.34-0.59-0.59-1.18-0.59-1.72c0-1.01,0.84-1.77,1.93-1.77c0.99,0,1.72,0.54,1.72,1.5
			c0,1.15-0.97,1.65-1.95,2.16c0.31,0.41,0.64,0.8,0.89,1.09c0.31,0.37,0.61,0.7,0.91,1.02c0.41-0.63,0.69-1.33,0.83-1.76l0.73,0.33
			c-0.25,0.61-0.58,1.33-1.04,1.97c0.46,0.47,0.93,0.93,1.49,1.45H158.13L158.13,160.42z M156.78,159.09L156.78,159.09
			c-0.44-0.46-0.84-0.9-1.06-1.16c-0.32-0.37-0.65-0.78-0.95-1.22c-0.64,0.39-1.14,0.86-1.14,1.65c0,0.95,0.73,1.48,1.55,1.48
			C155.82,159.85,156.34,159.54,156.78,159.09L156.78,159.09z M155.16,155.76L155.16,155.76c0.81-0.4,1.51-0.8,1.51-1.57
			c0-0.56-0.39-0.87-0.91-0.87c-0.58,0-1.07,0.46-1.07,1.12C154.7,154.85,154.9,155.32,155.16,155.76z"/>
		<path class="st2" d="M165.82,160.42v-7.65h3.41c1.33,0,2.14,0.8,2.14,1.95c0,0.96-0.64,1.61-1.34,1.76
			c0.81,0.13,1.49,0.96,1.49,1.88c0,1.23-0.81,2.06-2.21,2.06H165.82L165.82,160.42z M170.39,154.86L170.39,154.86
			c0-0.69-0.46-1.24-1.32-1.24h-2.29v2.47h2.29C169.93,156.08,170.39,155.56,170.39,154.86L170.39,154.86z M170.54,158.25
			L170.54,158.25c0-0.7-0.48-1.32-1.41-1.32h-2.35v2.64h2.35C170.01,159.57,170.54,159.07,170.54,158.25z"/>
		<rect x="174.18" y="152.77" class="st2" width="0.95" height="7.65"/>
		<path class="st2" d="M177.61,159.34l0.57-0.73c0.49,0.57,1.32,1.1,2.4,1.1c1.37,0,1.8-0.73,1.8-1.33c0-1.97-4.53-0.87-4.53-3.6
			c0-1.26,1.12-2.13,2.64-2.13c1.16,0,2.07,0.4,2.71,1.08l-0.57,0.7c-0.57-0.64-1.38-0.92-2.21-0.92c-0.91,0-1.57,0.49-1.57,1.22
			c0,1.72,4.53,0.73,4.53,3.59c0,1.1-0.76,2.25-2.82,2.25C179.23,160.56,178.24,160.05,177.61,159.34z"/>
		<polygon class="st2" points="191.36,160.42 186.89,154.32 186.89,160.42 185.94,160.42 185.94,152.77 186.92,152.77 
			191.32,158.75 191.32,152.77 192.27,152.77 192.27,160.42 		"/>
		<rect x="195.21" y="152.77" class="st2" width="0.95" height="7.65"/>
		<path class="st2" d="M198.64,159.34l0.57-0.73c0.49,0.57,1.32,1.1,2.4,1.1c1.37,0,1.8-0.73,1.8-1.33c0-1.97-4.53-0.87-4.53-3.6
			c0-1.26,1.12-2.13,2.64-2.13c1.16,0,2.07,0.4,2.71,1.08l-0.57,0.7c-0.57-0.64-1.38-0.92-2.21-0.92c-0.91,0-1.57,0.49-1.57,1.22
			c0,1.72,4.53,0.73,4.53,3.59c0,1.1-0.76,2.25-2.82,2.25C200.26,160.56,199.27,160.05,198.64,159.34z"/>
		<path class="st2" d="M211.09,160.42v-7.65h3.41c1.33,0,2.14,0.8,2.14,1.95c0,0.96-0.64,1.61-1.34,1.76
			c0.81,0.13,1.49,0.96,1.49,1.88c0,1.23-0.81,2.06-2.21,2.06H211.09L211.09,160.42z M215.65,154.86L215.65,154.86
			c0-0.69-0.46-1.24-1.32-1.24h-2.29v2.47h2.29C215.19,156.08,215.65,155.56,215.65,154.86L215.65,154.86z M215.8,158.25
			L215.8,158.25c0-0.7-0.48-1.32-1.41-1.32h-2.35v2.64h2.35C215.27,159.57,215.8,159.07,215.8,158.25z"/>
		<path class="st2" d="M224.91,160.42l-0.68-1.71h-3.81l-0.68,1.71h-1.09l3.09-7.65h1.18l3.07,7.65H224.91L224.91,160.42z
			 M222.33,153.74L222.33,153.74l-1.62,4.13h3.25L222.33,153.74z"/>
		<polygon class="st2" points="228.02,160.42 228.02,152.77 228.97,152.77 228.97,159.57 232.53,159.57 232.53,160.42 		"/>
		<rect x="234.95" y="152.77" class="st2" width="0.95" height="7.65"/>
	</g>
	<g>
		<rect x="41.55" y="114.18" class="st2" width="6.45" height="32.47"/>
		<path class="st2" d="M56.03,119.6c0-1.72,0.48-3.05,1.44-4c0.96-0.94,2.28-1.42,3.98-1.42h7.2c4.94,0,9.04,1.47,12.3,4.41
			c3.26,2.94,4.89,6.88,4.89,11.82c0,4.94-1.63,8.88-4.89,11.82c-3.26,2.94-7.36,4.41-12.3,4.41h-7.2c-1.69,0-3.02-0.47-3.98-1.42
			c-0.96-0.94-1.44-2.27-1.44-4V119.6L56.03,119.6z M76.26,137.74L76.26,137.74c2.03-1.83,3.04-4.27,3.04-7.33
			c0-3.05-1.01-5.49-3.04-7.33c-2.03-1.83-4.56-2.75-7.62-2.75h-4.95c-0.81,0-1.21,0.4-1.21,1.21v17.73c0,0.81,0.4,1.21,1.21,1.21
			h4.95C71.7,140.49,74.24,139.57,76.26,137.74z"/>
		<path class="st2" d="M91.62,119.6c0-1.72,0.48-3.05,1.44-4c0.96-0.94,2.28-1.42,3.97-1.42h10.66c2.91,0,5.33,0.79,7.26,2.37
			c1.93,1.58,2.89,3.73,2.89,6.45c0,2.86-1.39,5.06-4.16,6.62c1.64,0.58,2.94,1.53,3.91,2.83c0.97,1.3,1.46,2.8,1.46,4.5
			c0,2.89-1.02,5.22-3.06,7.01c-2.04,1.79-4.63,2.68-7.76,2.68h-11.2c-1.69,0-3.02-0.47-3.97-1.42c-0.96-0.94-1.44-2.27-1.44-4
			V119.6L91.62,119.6z M111.31,123.55L111.31,123.55c0-1.11-0.37-1.94-1.1-2.5c-0.74-0.55-1.71-0.83-2.94-0.83h-7.99
			c-0.8,0-1.21,0.4-1.21,1.21v5.83h9.2c1.22,0,2.2-0.33,2.94-0.98C110.94,125.62,111.31,124.71,111.31,123.55L111.31,123.55z
			 M98.07,139.41L98.07,139.41c0,0.81,0.4,1.21,1.21,1.21h9.07c1.19,0,2.19-0.33,2.98-1c0.79-0.67,1.19-1.57,1.19-2.71
			c0-1.19-0.38-2.13-1.14-2.81c-0.76-0.68-1.77-1.02-3.02-1.02H98.07V139.41z"/>
		<path class="st2" d="M137.49,119.6c0-1.72,0.48-3.05,1.44-4c0.96-0.94,2.28-1.42,3.98-1.42h10.66c2.91,0,5.33,0.79,7.26,2.37
			c1.93,1.58,2.89,3.73,2.89,6.45c0,2.86-1.39,5.06-4.16,6.62c1.64,0.58,2.94,1.53,3.91,2.83c0.97,1.3,1.46,2.8,1.46,4.5
			c0,2.89-1.02,5.22-3.06,7.01c-2.04,1.79-4.63,2.68-7.76,2.68h-11.2c-1.69,0-3.02-0.47-3.98-1.42c-0.96-0.94-1.44-2.27-1.44-4
			V119.6L137.49,119.6z M157.17,123.55L157.17,123.55c0-1.11-0.37-1.94-1.1-2.5c-0.74-0.55-1.71-0.83-2.94-0.83h-7.99
			c-0.81,0-1.21,0.4-1.21,1.21v5.83h9.2c1.22,0,2.2-0.33,2.94-0.98C156.81,125.62,157.17,124.71,157.17,123.55L157.17,123.55z
			 M143.94,139.41L143.94,139.41c0,0.81,0.4,1.21,1.21,1.21h9.07c1.19,0,2.19-0.33,2.98-1c0.79-0.67,1.19-1.57,1.19-2.71
			c0-1.19-0.38-2.13-1.14-2.81c-0.76-0.68-1.77-1.02-3.02-1.02h-10.28V139.41z"/>
		<path class="st2" d="M192.93,146.65l-2.79-7.57h-13.9l-2.66,7.57h-6.66l10.57-28.26c0.61-1.64,1.33-2.78,2.14-3.43
			c0.82-0.65,1.96-0.98,3.43-0.98c1.58,0,2.83,0.34,3.75,1.02c0.92,0.68,1.68,1.81,2.29,3.39l10.66,28.26H192.93L192.93,146.65z
			 M182.56,121.18L182.56,121.18l-4.16,11.74h9.49l-4.29-11.74c-0.14-0.31-0.32-0.46-0.54-0.46
			C182.81,120.72,182.65,120.87,182.56,121.18z"/>
		<path class="st2" d="M225.02,146.65h-15.53c-1.72,0-3.05-0.47-4-1.42c-0.94-0.94-1.42-2.27-1.42-4v-27.05h6.45v25.1
			c0,0.81,0.4,1.21,1.21,1.21h13.28V146.65z"/>
		<rect x="229.8" y="114.18" class="st2" width="6.45" height="32.47"/>
	</g>
</g>
</svg>
